# xmcd
#
# Track frame offsets:
#	150
#	19158
#	36573
#	55744
#	75918
#	92489
#	110211
#	125186
#	140849
#	158699
#	175288
#	194086
#
# Disc length: 2810 seconds
#
# Revision: 2
# Processed by: cddbd v1.5.2PL0 Copyright (c) Steve Scherf et al.
# Submitted via: EasyCDDAExtractor 15.3.0.1
#
DISCID=ab0af80c
DTITLE=Ricardo Montaner - Las Cosas Son Como Son
DYEAR=2009
DGENRE=Latin
TTITLE0=Cancion De Pobres Corazones
TTITLE1=Para Un Poco
TTITLE2=Las Cosas Son Como Son
TTITLE3=Volver
TTITLE4=Doce Y Media
TTITLE5=Yo Canto
TTITLE6=Los Amores
TTITLE7=Tanto Tanto
TTITLE8=Esa Mujer
TTITLE9=La Amo
TTITLE10=Me Fui
TTITLE11=Si Se Apaga Mi Voz
EXTD=
EXTT0=
EXTT1=
EXTT2=
EXTT3=
EXTT4=
EXTT5=
EXTT6=
EXTT7=
EXTT8=
EXTT9=
EXTT10=
EXTT11=
PLAYORDER=
